<mxfile host="app.diagrams.net" modified="2023-11-09T02:00:06.382Z" agent="Mozilla/5.0 (X11; Linux x86_64; rv:109.0) Gecko/20100101 Firefox/116.0" etag="L4Twi7AyGjPR0TTXxNtV" version="22.1.0" type="device">
  <diagram name="Page-1" id="MPFhy1Taejah_MmDmPWj">
    <mxGraphModel dx="2127" dy="435" grid="1" gridSize="10" guides="1" tooltips="1" connect="1" arrows="1" fold="1" page="1" pageScale="1" pageWidth="1200" pageHeight="1600" math="1" shadow="0">
      <root>
        <mxCell id="0" />
        <mxCell id="1" parent="0" />
        <mxCell id="xH2_IwNUAGD1Fj3YjGmF-2" value="&lt;div&gt;universal&lt;/div&gt;&lt;div&gt;gate set&lt;/div&gt;" style="shape=step;perimeter=stepPerimeter;whiteSpace=wrap;html=1;fixedSize=1;" vertex="1" parent="1">
          <mxGeometry x="240" y="230" width="120" height="80" as="geometry" />
        </mxCell>
        <mxCell id="xH2_IwNUAGD1Fj3YjGmF-3" value="&lt;div&gt;fault-tolerant&lt;/div&gt;&lt;div&gt;quantum&lt;/div&gt;&lt;div&gt;computation&lt;/div&gt;" style="shape=step;perimeter=stepPerimeter;whiteSpace=wrap;html=1;fixedSize=1;" vertex="1" parent="1">
          <mxGeometry x="460" y="230" width="120" height="80" as="geometry" />
        </mxCell>
        <mxCell id="xH2_IwNUAGD1Fj3YjGmF-4" value="&amp;nbsp;defect braiding" style="shape=callout;whiteSpace=wrap;html=1;perimeter=calloutPerimeter;rotation=-60;" vertex="1" parent="1">
          <mxGeometry x="150" y="190" width="120" height="80" as="geometry" />
        </mxCell>
        <mxCell id="xH2_IwNUAGD1Fj3YjGmF-5" value="lattice surgery" style="shape=callout;whiteSpace=wrap;html=1;perimeter=calloutPerimeter;rotation=60;flipV=1;flipH=0;" vertex="1" parent="1">
          <mxGeometry x="150" y="270" width="120" height="80" as="geometry" />
        </mxCell>
        <mxCell id="xH2_IwNUAGD1Fj3YjGmF-7" value="&lt;div&gt;planar&lt;br&gt;&lt;/div&gt;&lt;div&gt;topological&lt;/div&gt;&lt;div&gt;codes&lt;br&gt;&lt;/div&gt;" style="shape=step;perimeter=stepPerimeter;whiteSpace=wrap;html=1;fixedSize=1;" vertex="1" parent="1">
          <mxGeometry x="350" y="230" width="120" height="80" as="geometry" />
        </mxCell>
        <mxCell id="xH2_IwNUAGD1Fj3YjGmF-9" value="" style="edgeStyle=orthogonalEdgeStyle;rounded=0;orthogonalLoop=1;jettySize=auto;html=1;" edge="1" parent="1" source="xH2_IwNUAGD1Fj3YjGmF-8" target="xH2_IwNUAGD1Fj3YjGmF-7">
          <mxGeometry relative="1" as="geometry" />
        </mxCell>
        <mxCell id="xH2_IwNUAGD1Fj3YjGmF-8" value="&lt;div&gt;surface&lt;/div&gt;&lt;div&gt;codes&lt;/div&gt;" style="shape=hexagon;perimeter=hexagonPerimeter2;whiteSpace=wrap;html=1;fixedSize=1;" vertex="1" parent="1">
          <mxGeometry x="365" y="160" width="90" height="50" as="geometry" />
        </mxCell>
        <mxCell id="xH2_IwNUAGD1Fj3YjGmF-11" value="" style="edgeStyle=orthogonalEdgeStyle;rounded=0;orthogonalLoop=1;jettySize=auto;html=1;" edge="1" parent="1" source="xH2_IwNUAGD1Fj3YjGmF-10" target="xH2_IwNUAGD1Fj3YjGmF-7">
          <mxGeometry relative="1" as="geometry" />
        </mxCell>
        <mxCell id="xH2_IwNUAGD1Fj3YjGmF-10" value="&lt;div&gt;color&lt;/div&gt;&lt;div&gt;codes&lt;br&gt;&lt;/div&gt;" style="shape=hexagon;perimeter=hexagonPerimeter2;whiteSpace=wrap;html=1;fixedSize=1;" vertex="1" parent="1">
          <mxGeometry x="365" y="330" width="90" height="50" as="geometry" />
        </mxCell>
        <mxCell id="xH2_IwNUAGD1Fj3YjGmF-12" value="&lt;div&gt;realize CX gates&lt;/div&gt;&lt;div&gt;on surface codes&lt;/div&gt;" style="text;html=1;align=center;verticalAlign=middle;resizable=0;points=[];autosize=1;strokeColor=none;fillColor=none;" vertex="1" parent="1">
          <mxGeometry x="140" y="120" width="120" height="40" as="geometry" />
        </mxCell>
        <mxCell id="xH2_IwNUAGD1Fj3YjGmF-13" value="&lt;h1&gt;&lt;font style=&quot;font-size: 17px;&quot;&gt;NP-hard&lt;/font&gt;&lt;/h1&gt;&lt;p&gt;heuristic algorithms or&lt;br&gt;less generalized&lt;br&gt;optimization methods&lt;/p&gt;" style="text;html=1;strokeColor=none;fillColor=none;spacing=5;spacingTop=-20;whiteSpace=wrap;overflow=hidden;rounded=0;" vertex="1" parent="1">
          <mxGeometry x="145" y="400" width="130" height="100" as="geometry" />
        </mxCell>
        <mxCell id="xH2_IwNUAGD1Fj3YjGmF-14" value="" style="shape=image;verticalLabelPosition=bottom;labelBackgroundColor=default;verticalAlign=top;aspect=fixed;imageAspect=0;image=data:image/png,iVBORw0KGgoAAAANSUhEUgAAALAAAACuCAIAAAAZCRDiAAAAA3NCSVQICAjb4U/gAAAgAElEQVR4Xu3ddfx8RbkH8PsD7O7uVgzswESvimKLrYDdgYgoigp2K2IrYicoNldsRcUAW1DsTuxr3Td87h3P3T27e/bUfn8/9vyxr7NzJp6aZ5555pmZTUccedR/rJ81Bf6PApv+9a9/NaTGP//5z6222urDH/6w/Ne//vXzt2HZdbbhKNCaL1/84hdBtd1221Vh22Y4QNc1b1gK0AKbNm364x//GAjzN+9rgdiwXBsQMNKg9q233jpt5O9aIAak+AavOirhl7/8ZeCsaoitlgWdNFUFatni6/wDUWApvsRw/K8TH/BU7cilh4zmRuhAmK+rraXAUnxJ5m984xupqpNAFGjWeqKWMeMnLssI7Gc9GC+OO+440P7qV786y1nOUkaNpYeMgvBSIjk+mU46LS7LCNNUxPnYxz527ImPF3+T6GUJgYgkbrPNNim8rGCedDg0MqZhBKac7GQn03RDvnz5y18+7WlPe7rTne7oo4+uAryEDRGtcspTnvLPf/5z84ZHps5JsLlIwN///vcznvGM0C/KfxYpjBe/+c1vvvOd7zzlKU9R9nOf+9yvf/3rM5/5zMm/hECkYQLxj3/8Y1Zj6/RVUYCGOPnJT671Jhrib3/723777Zdp5y1ucQvCVMBeWiBOfepTE4i133pVjK9tFzsw9TSnOU1DgTj72c8u5/e+9z2/E67rJWyIgGLU+e8Tn1rI1okrocBf//pXnR5rGrZuWPFYmfLkvRRcWiBOf/rTE0YQNGx7nW0ECkQgsKZ5W0aWiMLEELO0QLAhCONf/vKX5m2vcw5NAeygs09xilN0b2g5gciEk4YgE93bXtfQFwWwI5Z+cSe0rnk5gaBktOS3e8OtIV4XnKZA+BLWTH9dKmU5gch402RisxQQ68zdKRCZ6M6a5QSiaIjuDXcnwbqGQgHsCEeKqmhNnOUEIq0yXtbTztYUH6IgdpzqVKdSc/eO2kYguDU4O4dAbF1nOwpYsTzb2c62AoEIuASCM7wd6OtSQ1BA/4xAdK+8jYY497nP/fOf/7x72+sa+qLAL37xi/Oc5zxqG3vICALiKX73u9/1hcy6nu4UwI6yXNmxtuU0RLWx7gZtR9DXxUOBfhnRXiC6a6c1R/uiQI+8aCkQFtZ++9vf9oXPup4uFMCIpZa15rfVUiDYld/97nfnV70Ff7Vw0K+i7kIrsbKxKLtUUsq2FIjzn//83/72t9Vy0lzUEIXWo5ZuzcgQHyPOe97ztq5komBLgTBkZKKxcTpKXxSZX094IFL5mGOOkXO16Kf1448/XrjsfLCbf20pEOiyWlo0wZBiXzaQB1IW9z1F83lXj9+wX+SBvwceeOAnP/lJKRtBQSbqqQlBmuRpKRCWM4R0Il/ZMNqksSHy/OlPf2LQvOUtb1F5Vlhuc5vb4NlLX/rSK13pSje/+c133HHHww47rDQd1u62225f/epXJebvy1/+8uc///n+GgjsM/AUKnuHo998FVLqL7egl6QMgVTDOkGCBaLvRS01LLIw2xJBttW6RHyzbH/wgx8wJsC0wgH1D3/4A/Z86lOfutSlLnXZy14WkNx2KMXmfcQjHnH3u9/905/+9BOe8ATCwXUD1PRpAcfVGB+VULzK/vSnP33729/++9///iY3uckVrnAFL0YH0nDkkUc+9rGPZc+/6lWvIn+aCMorVJMh+/e//33D9xnOcIaFnG6YoY2GAAoaEYjsBVshUSBJh1/ykpe8//3v/8xnPtN7eox0MpGQsmtc4xpWArP4gouJVder5PRk7JOux/v7+Mc/3ngMtec973lf//rXpey0004f+chHpJCYvfbaCwMIzVvf+tZsgmhI5SGyhexYADbsyN/uDbXRENpGQc+yI3R3cKdrQAvd/RKXuAT18MIXvnCPPfbIKIDlX/va1z7/+c8ffvjhJCPdWuC5/Lq+33vd616YSk8QEerkkY98JIywXGaJ9rE4K+e+973vVa5ylWxo+eAHP0jgXvziF4PBpuly2sY0SGOmlFDKMKV7020EItoS4RJqm7/dQWldQ7r7Qx7ykPvc5z7f/OY3z3rWs5IJmxQYFt/61rfOcY5z4Cgl8fGPf/xlL3vZuc51LnKD5a9+9asvd7nLsTbokhe84AXxs732ta910A7UfvzjHxsN1UNoIOjFrKqsKF784hdPZ1gh7mmaHEQR9gVJe4G44AUvaHhGlwDUmp0dC6KIXoIcwNDL2ZIUAwXws5/97DGPecytbnWrUv9/nvjkb+YO3g0ZBIJ8KEI43vzmN3/pS18iYQoyV1UbofeVBnr9619v0m9w8XLDG95Q8b4UdQsiBDaKisJTfJUCEULoaqBhXvXoFWlBF+wEiYLEAs+uda1rvelNb/KXnshuBSw3KKCXl0wgaQshHdWNb4wyG1ZVtcsuu1zvetcj62qwqOs3lZMYlgoTddddd4312m+/bIG4IoiPBVRgX+OFOpc4ha4KdDQtrYt8F7rQhdrhszFLQc2cs68ONyiOTB+GDhkNO5q3FQGKK0UXqspTmyHjBDk68dQqEzkTs+ZwbBY56YnNAk5AmvhEjfUovm2mnUUgrnjFK7LaNhfybXlwsqD5Vwo7ekGwk0Cc73zn+8lPfrJCw6oXEmymlSA74vcVOVeI0FIg/l1+q63W2/pWIlLIPsTo1lUgzMi/8pWvrIQiJ/FGnQnEHdc7EboKxKUvfWkTd2BthHW/3qmzMSsMqZHdTLh3CLsKBB9OXMW9Q7aucBYFMqeIf2VWntbpXQWCS8fkk3Vj7t4aiHXBpShAIH70ox8h+xALbJ24GEc6n2DMiPWosRRf22UOkQVzEIiEpLSrZ1apTgKRSkVnbJBVrllIbknpGS/K7t7eUeskEAGOb99CgNXCHv1lveO5xVSIyGI7LLxd5jKXgVTvNO8kEADiRWdGgC+HHq6dVINKXshrr7c1LYFSiN97c10FIhLKo554gt4FtneEN+sKQ16RGVY4h1AP6uwqEJlcuILLtHhtVI4gbYj8hS984brXve4JzBtgZtdVIEICcYjiVNfHyowgEIjMYsuhtUM0149AgOxqV7vaEUcc4WVtRgzBp0JYQQxXvepVB2pCtb0JxEUvetHsdFgLxEDcCmHFgl/kIhcZqIk+BYISY1oygIcY2IbDfzOqGWHFzAn07XHj3jT6/WgIwiv0VPjhZz/7WW2srctpQndMCUndbWF+ISZ0ODXcj0AE23Oe85wcEibH68lnR/ZPF0dSARDMyR53/k+3IqUfgQAuERYbwWFib9NaIGpp3SURSW2cFMF6sYtdDKmHo3A/AhFUQcmMsCGiC+brsrMowICIP2pWhl7SexOI2JI3uMENuE02uA1hAK59eiHoQJUgKQPCpgf1D2q29yYQIQR7hw2cu3sGIs2y1SJl9ucYgxPLQ5PVPmqWIdkUGc5wWxYFkBiIRT/k/OJliy+Vv+W+jDltUBLvfe97bbPEiUFleQ4M4aVfAEzDwDRj/OJ99mfag2WnnlkScnuZqLYM2MMN23MQ8Slk/MAHPuCsi/k5e/k6iX/3Sk2UkdjiZ/aQdK+wYQ0Zp8L+MM8vrtvq6U5ju7l/+MMf2smfTU6yCVmO3MgmMYpEormSzYmcPyIWRYxORDZHPsYUDm2xHrh5+jq8eD49exYIJCYNvJZO8HD/3zhKIqvAhXNkUQSXEZc1Y/AS0HWBC1zAbM2mWJymeCmDaIXoA0ITbUFtWLMlNxjgnBA7wfnZlHVvHW/xtttuS8QjcBMtzidxl68hIGJe+MIXTnzU0LLYs0AEXN3LtkNT0OHWYELldPGIgn3Zn/jEJ3jGKAOcxsJ73OMeNjad6Uxnmh4ImjCJlAhFccIE2XrWs57lL65Ystl+++29qKEomCa1tctD/kw1LRxe/epXV8PQ0qCJngVCjYSa1oWJjWb2+rUjxPxShRMh0Dvf+c6DDz4Y8ygD3Npzzz0d7TBdg1Ke+TRNhuQhRrS0s4U8aqNsPvShD330ox9929veJp7x1re+9S1vecu0MqhkOO4OMU04x1G3LXd/T5N7IoXWPfTQQ+2un7bpFpadn0FPTY93J4DjHJwKglhOFrv2ta9d9qFHpWt6PvvnN1SYHeukDEk0kLNHGM6uBNh5553veMc7UkIyF8CaVNswj6ZtsSd5ZL1hkSbZIvd97v5e2GosIJMlY3B3rhTeqIo0ON7FwYDOljM2Pfe5z7385S+fJpDPg3MTluBCaOdkUHNqQ8QYpMYLj7MinDWz//77k0jnkBienFqknoVKaE5bE59UhYDw7VcaFgBwghod5rF3AL3UjUkdWyg1YMlznvMc48KDHvQgQ1KpNqLQsZWGxSfash790Ic+lEw89alPFb2SSrqjHEcIApL+hoA1zxbwmFyeCQb17JiqSp/FTwe12IKok2l1gWDO/ow0UQBsBU6OY4891pFQzomydJKhQVEZkmd2Nb19KW1BCgBmp46se/azn82q3WGHHd797ncHngJbi4bVbLw7+uijEZBB1qKG9kWai1WLnBwAJm98f617TDoKzckcudGNbuSEwIBhwM6nFlD1WwQYgEmdTrxz9pRTUS1ERVzatYVciPa6172uqgXbVVVbajUaAii2J6OXrtNCSQCamOsoDoW8wx3uYJXPwYAJLvXJuN67udquVwEDMIFWsDGXItuWsekA1ECYT80rRzfkoggNQLSgv83L9pCzVoJ6SYwYkobXvOY1y/bm9Dm/D3zgA7NgFpBaa5peMFpYSQHPybeEg6ETxIsKWVhDQdORuUjn7xAop86xbYhoBQY5rKi+5sIbBWDef9Ob3pSN/f73v5+vEE3VMJqh0Bzaas6AB1QOMWD7CwXDR1EhDas11NpWH9KNjXJDme2SzcYSk8OlhJ3/58pXvvIrXvGKtLusgukCbS9lC8DOzYQIv0XDatN3kYsTvWGRFtnmaIgT5s0jPO973/scB6yh+azNV8aUHkYmFuYfAfIuTQQdliZ0nHWqqvn6P/n5Q1lLXdpdWHaOQAw47ayqR65459XxLc6xBJHDV4dJH3DAAW94wxuuc53r0L1z8jdUvyvMBngoMCZMtSD1kpe8hP6H5iyQ5Eci44UDtmflGTp9DIEgj9YY2QEmjfAhv9NYxW540YtexBtNGljXUtotSk1XvsIUKEDEBnnn677xjW/kPpllT4Qs1AnHK3IptRKwxxAIgg9bSkK4pVXQaSvJV3l0IHoV4Xi7k7ISivTeaNC38g41U2gHsCdloiFkQRxrQDladmWqceF402MGAuHiGi6XqiWRKRmles1rXjNu2vkDbY/wLFUVmJedPVbrD8qCLdzfwUjyqVqbr7wOPJ4EYimo2mWeY0OMZFQWuJ3N/I53vMPfwJRfiRbK45WrykpKzZIP6bM+lYLzM7SjZutSQc3aBxMhJnOVCFbwY3e3rr95wbQ7th9iWveCWIAJPRHfJbDoSev9rjWgOeKVm1aV00NMapaeT6qdaCspJcM0JEulpLbPfOYzjBsF51iF86vNSGHtw/rc7rvvzhcJwhABQSymZ7CYX8nQX8ewIao4CGQVWmcWmgBXevIBD3gAd6QFTISe5r2wNoGQpQZ5hLX5S6osmwmVqz3KKPUQNRnKvfX4arTKwooa/KW0VViGMH/LV3zyNymRAMY/TaZgPqWUv17oeb+Rm1Rb6pngH8DUBll3QkE8pZACQcTQ9niXWmu5GVUg0iHEDTgfiYbUYzh3XWvjgH9UnghiwAxYWREQDqkDBUPBKdY1vFtDch3SE5/4RIEIRx111AT+wipdsOO6JdevWZtWSgatc/95ooT8NQXQqBS/+Vu+yuOrR0omOyIxc6NyyRmAZbjzne/sN1I4Uc80YzLLsAAmgheQ/hpDvSNLtMV0kTFTRhUIiEVtmpo7IsmteTj35Cc/OekTaIe+NAQJ4O8rHT0XnwhSstDMaCcQz3jGM5SlbHQ+NPVuMdrJV4cccohwt4c//OHhqPiMRz3qUbRRBMgKqkhJFzTe5S53YeVxMLt3T22JIzJAcBc+6UlPkj/iqDdHRnVoBe92t7sRVm3tu+++9JBKxPT6S/OrB7/nnJYRiRQ/Qc8ZLu1ksV5DtUwPl2OKQtoaWyDSKuTNthnVOjE9GWU7gXwSCQQFK/wkchO7rJpTPWJQpRAUvQ1NRaViOd2QMUIGIZYS9957b3M/kXb77LOPYQiDta4I5ol6wlG23s1udjMXdBE+8x2s4nU25D/ucY8jZ7mWR0MsABLm/iYjiOBslzGJWnBdm3t4xBW7HNDFPralWNJjJhPrWuxUaPTUBNllUNfmGV8atLgCgUAjD23/4Ac/WK91xmWUQS3+GMxKMECgNZ+uQPiM6LqpaCLxhmiaYFcKw9qHo67U5ms0M02ecdruDIlUtBBIbiIGNkHEftIgqsXDTYK1lq2NCw7mVfze9763UE1AYr/iVFp6MA1v+JACJCoK+6krflWRt3SJmkFoeskzG0dclNYEdoCEuGxAoodCk1oKjJw4tkCkK6CpxUwzCzduHHTQQbU4R0oyxMhA23Ni6nMYk/zcOG6tvOc974mpUnR6tgLpoYE9vpYxXlW0PeFIQaIQow9fpQBJTnGLXvIuUf5i4tEN/oIkAkGwtEUgWEKGGPvACvx4j82g8tWFn7nzLaUmcAQS1wuNhQjEyOgWSCayjf+3/zD8OThEGowChmeq0l+z0ARPMxR0rLAwNSQz+mY+wn15+9vf3oCdo81w1EBebcs9nOWv2h72sIc9+tGPZqkRPgrG8pKRxbsQbfssxF8J28/9UHgDJF8jghK1qNMzLGRjaoCQ0ccKTn4KyQwZMC4lVCr7ZxynZLUakEJ4eNgoDBOHjGUTBAmaVAvY5ISm0ZCeEw9GQP0NGHPIOOinrY21gzZQrRy2ugtR0IML/4RCMcqMHdMnHyANG41jn1pO+BANYcDW87h3UDOdL786MVpH98qPuHzhwjD1QiOCLUM69Ctf+Uoq3dTGsI3NGJwQrNIKaKkZxgQFRg1Q6dQ+I5EmYwAaO3wiW+9617uYhDIYdIgO3cN0IDS2rAkSM5Axj2S2oYOaqTI4kymyQgTdUR6hByEZhRr7ZjSBABU7Gr7Zw/JvIEEwzoMWGmKs6T2UpPekeMFLJljzoIERACZMrn0eoiESydaJZVOIwOBAltxXVcgyROupM02s2FMZGURom+xo1/Tm6A8jBVuP5ydHVMVszCege4qa8Slfq3lqNVzkjKiV4iXFiyJ+SyXVVrDK18x9ZGAilPylKulRSAVIf5NNysTX5ElbQuuYF3e9610zE/YJWXyiHc1ozIGTUovRSInDieF0zfHOMvfCgIkMFLhgCMozrJouPmZKmNpXi2pTFXGHIMNiotpQw1DFdc0x01ejc+rRoq+r1BDpWwZX/YDlNd0PwMew4AywuZaxVmuZj9RFTmwGAFULt2PTarODG2p3utOdWDOQrVYY3SlW2/50Vo5PVaXYselli4807YSzWTtjigMHiFU7KxBLQSZTShM5SpXLQfoE4ZbFbSPkDwqWMSFl9x//qZRa9EFrgcOWUYPUdIbRcBlDIChMGLLM6QZOoVm4hQoGb34FtifH8ArpMgvIZdOhABHWIn9J3B5zkDIP4u40M5InNseyzXXPP4ZAQI8OJPvZV7+w38tvpcCZHvRnvA4Li3QnxBA1sDRtrzAphc4cOUjTwfHGN77xe97znlotMgSE03UOLhBwM4KaVlkg4CCahqA2RSnLwfw/ZiW6F2pK2SzEosAJbCak6YPl/uaQW+VCqJwJ0bxULQ3bJY7kqRQgZBWbe5gmbGKsRalw1HCbWLHkC+KGgiFNs3J7cw6hsTCawISCCcltZYLdEOYMExypPJjIpTPMaWi4T4NriHRuBIpjvzkmGI++zA6BJGaqHMnHH3/8RpYGqEEWkKKrdXGu2Gy9WhZmPmyL70W2mlOsl5yDCwQoza25JvmPvTdRDwWx9DZFRKDoMfFm5mvRzL1QoUslVUhMmE2tTSDNn7OWttB0qDYd4iCU6LoEhnUBrF3ZMYYMZDJeWFZuqDynMUF0/k0yYY2bbImviTOj4QA0XWFfKQUAa2Cmygxh02aLL637NxIp7mgN8TXjHEw5QYphBSISwCcjyEXDS3WXKqAxKVCK09eyln205ZjBvljbrh59mvuVy8/SFzHNZdyt5b6QiMGEaASiS1XtMBpWIAKToJXb3e52XQRC2YzEeh5Phsco6yQG/LBmmFBHeZCP6LQWu4UUzOhQbALmgvV0QwN1BQzFoxiWNRqq7QZ4a6pjrkJXARhWIJAmh8f2ZTOjF6JDQCCFNW7GJgtOLJqlQsec5VhMYiGPpvuSDLVF1FKnxQgDvB5sYslSZjEUb3RfLZJ4a2y0zgjH3090gwEFIuqOy9Z6f48nmIboKuf4E4LgYYJxiotLEGCnrTnO0IU6oDaDFmPuwUXcBmkQXEMUyt1XvSt25BKBYXAc7XjKgviAApGuLO6DibTU5KKWKxOJVbUsLMVjLmOl1Bq60QQLaV2y0qSqhXlEQ1m2hg4jhtloWjhxjHeXMaK2dYvjzhpDOvchhIy12YZIHFwgTApqz5XtEZmodF4vx7WoVrATfYualpRIBj8PnSEC1id/cdRyCQH1hJH6t8mCJ+F6YQA1QLboA0W4EyxMC5UriMjc45BUSwoCkfB/4PXenWpbTOKAAhFyGwiHdjJGpWOkR6OZkdIZMSYEionKt7kKwjLQxlirC3pCaNy16OCxbmJJNkMSi4R7VBy2v1UFEGNiUA5lADJkZKNH7+pnjjT4NKxApPONYxnhXHhZEA4prR96SiL2i6YURksfJGCaTUpn0By0yEJOj8YeRCOgI6uHAQVCX8QeQVB+Ezg/wS1tR1xKdHw0P5Yk3jBdcyGH5st7vkZVeFenCudcPFHNORrvJ1AIoRANqDSWlxCzCabd8wylIYJV4tYzxZgWCBSvEj3cglIREe+90GKCteoM4fJSAIsIdqdpxxoCT4iGgARimnQdm5hTfNi1jAT/JDCkCoSO6K8Id5uWwnW/nApOkPHCJ2NlyKZK65xD0EKdeSKR5e8cMo3/CdEAJlp/5KaHEoh0vij/RBiXfglDA7lfeyPt2Ml5jv6aHeQABkElbqMQKsLpZJHTpwjQyKRZVXMhFDXpJSHgVdINDdVQQ0ZUPdOdmJeQ84JM6fd21jqCj6PCllxDZu4B4PARSSAzS9vObusXmeYNTYsNVT+ioRICgirEHAe8oTREWB7RnrbOks6K5l60585eLpgjQdmmF+SNKZmhFAEahygboZUQbXzVOKyG0OnxPmI+TWVsZjTx9liVsPPVAncERYStYDvyYdeeHXMKTuuY6dq2sBREQ40gPmZ/GEoggkP0XiyGKsPylbhEYrIxl3MwE1QjCOtSHh5iGbYwTjdEZ9Zo27B462zDCgRvD8i4gPxWxTyawPIxK1o6uXGajAhKO1XktKW/+LLGHD5bE7HfgiFU9ryHgFuChggj41ThXUGyKmujCZ2VUe4uFvBikhn8hcoVEo9Ji3752rq2EMpg6iUqc8xeMayGsDsPMtPHJITNZfnYX9nKnY62+7Wm5hZQMOzXi1iUCAijMXvFULOMqITsoRY9kL8T3IK5J4lwhn+M6vFN6w0lRmF/iEZlFhKNA+SAAhFb0m5Gx27UIgPzquwXT/b0NLW2+JaaGAlANOEXcJw2yQdFfECBCGIWo4WaweEkzubmXAyhEK26SNu8eMecAwpEEBNNKaxyZL3XkSgrL45cBCKBqCN3pMEFQmQ67ZdJ1MiEPtFEOSE+tkW7KbsqOUYuwVoJ6h/TokSooWYZqg4mwtcEpIibSiBTC94sWyS8VCp9qxA0fnGeD5NekzoGPEeIRUULSHGRSbek5D3+tGq7BvIxXWTUA6PS+WWFjMsSoXX+AQUCTHonrghUt/OVQGDVCPJebFW7qUxzhMiazetwtm8QTeznEXfunShcQbnkNaf4MH5JCSepkDu62q/1Nsv3QvFIyWi+85BITK85OdKFgK2526LgsAIR9iO9SOicwjeEQFTljJeTNhLATutqy/IpNUACcFqsLPUQd7jTCJHbXSYhGSnxV1lqIHe6853oppwBbny36CrS365+X6v3sg/BreBibzSija8etDiGQIgl55TsXT2UCjGeMsCeQw89ND0eNTGPEGBzNf5qVo9JngTXZ7LnXIdkplTUT8cI43YZN+VhrKE2CJnKsy7fo5SrCl4Uqj2iW6BAhKaIi4ioSQn3KBZoR6WbwohOpg+MDs42pPlzXH7hvRa9V6VnllgkT8kfEyTx+3Ge2h9mrGGLOCzdCi0RtJ+zWvmsmhumR+VAx+gWA6JhwR6zDashAigOIZ8jhQgEnLtYZ4Wvjllhdtmwte222+q+t73tbWcRJd23SSeu5pyVX3Masghn1wad4QhSOsmujbTecRCJLAohQ6gmim0Wyl3SBxeIsNBJOc7X6SgNxdTXhygGtoJIOz2YwPmEhenTXcixsGzQ0VB2EToqiY3iYHYPN3MW82YJ08LKdRWr3sYLR/DLXKR/YcEeMwwuEKGOTS9B1ejerhuhDnqJuyQNdt3YKh/rDy06ytlS1CzMBo8nviMd+sADD6TnaQsXBC1VYclcxgsvWedrLVjtAEipwQVCM7qvod2Ze85XIxDL9uN0FNSxLK4engPXk1RxXrbCLvQqZcHjCWzUu8s1TF+FBGcTOuFYtn8HC4Mg8VJ8IM9HIeYsIgzoqazSzrtjgdxelJ0as6CpTUd3k0CxuKZ/jDjR2PpQbc7xE6sKw4yUqjfTMcc2jrTo30o5AZ5pDJEWxZugHyFOUGNtE2MIBNnHQoOuOCgnbICbnDaBPtn4ABzRov8xRGiIzPSaFB8zT4hrUHNAKbCFACagoSEMwVSIkD2+PNbtRtWFbRE421yBGj9brQ4bQyAAGn3o6F5KtXn/jm7gtmOvUTBBuGEQiTcAAAo+SURBVMskZSHJumcAnqMj7EN3tP1SYxlBJ0bu8ijk6g7MRA0m5yZHWGAi4xNQp3vmSAIRyEzPuH1yZjH85yNMbmg21ypxARkpZoVuz69kJV9BDmZOC1e/N5H+TJHcsWPQcfXXQDDjPfuG+nE4muNvqGo6rKZ3yTfOgzQacmaDA475dpo06vZ0h7HJnJj0JkU2VB4eaHZ0tq/NB0zfpVdy1XMINT9/u68WaLjUlNWcd3oCef2ttjiehog5YxGBksiWPaDU9oakuwHRSEGiswJZm3ODJ5o9un442/FmgRpkDRYc5zkvptbWm1V8qXRXcpi/OIfEJNnZS9zH03p3PIEAOuSZM9Y1nGrOwJmFjGy0guP+2KGsyFnZNn46hWzXsuu45oOKFGbUNqfUDurzyy71lXSaAVmui18cnaeFb1SByHTDGiPXr+170RkTKMXABrqpZl9n101TzbCtc3gWmjLTZZunoDjfpf0m1tlrS4Ul9q9ut912Nq4F99qc3ROt0tFA/EA0Vjkja1pJjyoQsIrh7a5cp0zm0tUJs0uGjHC5L687IWpr0BfpKk+NVVVboG0it7ohrxxoVK0G4roEIhx++OEu/ivEadvUgnLGX6Lg10AmRkTuaWk4AYYF1QzzmbnrSm73asbgmmhExyUT2ZLQe/tRCU972tPMDN3Aufvuu/Nw9N5KKoxCNnEweGcZfaIhI+Oee+5p11o1zGIgYJxAYqQw7WTAcfFpZXq8kLgagdA53LVqtxbG6KMTSsKChXVtQjOR3gulUqejKe53v/u5XZOF6xbvXmqurUQv1CJOZPtayZPRwVZmvHHMb21nra2wS2LigEQJzWluNQIR68GNttbE8cYwUQXRe1m46oJ/bdl0iyxEie0zeOm+tTl7SYSLUUPwVUaN1CkRyiaZxk0nZMxhTy8wqCRNJHxQT4hSrG13ZQIBSm5a1zUbOMQ74VPRBwId8l6r0zrSKFQwcAiYo7HdZjDnDLKObZXiMC1XhAMAXtwAe+21lwkIF5ZsQ2A6DTzCcvsyIDLFq3WkjrHaOQ1ZSIDrfJfuquPSdvMYEy/EYpmX3X8DUUqvdS+L40rwI+dc1QLZV6IlvRy0VXqq2wmtekA/Y0dfDc2vBzGFj1APTDQ5a5temUAAKLNQh4sJPSITnP9AZFKwhPXgCMd8DFt8jYRRnqb+VuRb1NCiCAMimiAIUtrCCv3WsqRF/QuLwNqhDOx0KJvS53KCWg2xmiGjIJCRgk/CaSGMu0wC0U5AFJ4NoR7SRw0Weon3Mk4tpGm7DIjOocLCT2wmBM0waWyDhaaHQHAWnKY5VjGMXHYIMttlq+1yqxcIJDNTd+AcD1q0N/I5Z+i4444L0LMwbJeeWEWmgzBP/KjtJe1qnlWKrJMJMcAysKON4s5PMmZpekyBYMc4Y5p6sMJil0qgTfeoQr5igShgGSb4891GZybmXQ8GtD40DfEsui+Vbt4/WhSrmD9xddT1fvvtxwdF9HNKwlIAd8yMjOSPkqAeuD1srszkc1oiN4RAAAvElCpimYztu+++Th0Xtq9vTUPckTQjFzfhNPbZx0EaTLAhCM1aXT0CYAKUmLeHHXYYqvKQZtl9ot3/vaBmBGgWNhEysb/4rAwZBNmFJfZLLSy4MTNQb+w4sV66Js1npBAIYq6xKmlAJS5g3cyMl2RQWlQX2IwjVZA2hIYIR6MnGBCHHHIIi4/xZUceV6vhY2OyfA5UUdHOV/TYu0FFC4xYoTRk5BU/RzT5RvnlcnRy0quIbCCBAFZkgkPC+rjgY/fHH3TQQdmJNQ36HH6s9pOOGJ3sjOb999/f3h42rL64Qt2QkZcLTk9za2bO9KmFZ5V+iFq2BXSwmoVa/haFJhZNnA8j2WA8miVYC1uTRAMzgWb9cKsQaOpBmHhIv0J7KABwzlIMVsCzfzXdbwKpjaUhCnBgRVn+E30LDnaOG/BIA8Q8TRgzfp4AxtNg65V7uQwWAtRIQ63tNj54WjR9M8FB23JQ5DQYG1QgAJrwIXv4hf7Zp7XbbrtZ+IBM+tnQDqVpSs1JCTABzN0OFtbZxQcffLDlXFIydMjFHMDKp8BmzkkUKF3RaD7Vdq2NKxAgDhrgNnzQvdYGRVuJtfTJkKznrVwsAACMeLdMmAX1EF97ikQ5hNxBoQnPBs0TYMzaxErts88+TPVC3ol2N7RABFY0RXQb8k2gqYpdd93VCMJg1vMiFrWSPih9Va7RiAIwzOnFTu6xxx4777yzYUKA4MYZJqp0sGpoJsyirK60bX4CAeIMH17MRYmFiGGx/CTD3kCfSi8czrMZqhGCopM0qmnsJwqWLgUDu8zBQl1kZSMME1VOp1ORAwGefGXsdF+j2CYE4gRJ34weM7pA6+AOC6Sm1K5asQMuK1X5ZDLiiXD0gprunjpLbfqZjS477bST8DgHAQhszyc5e2lxiEqsDWVThsqNv37tI+U381Kl1Yabdk4K7P//r+eB3mMZ94ADDnj605++9957s5L8suPY9tR1ri9TDnv86hx55tc88bWwRHrGJi9OKeErs5mMHWPKs8suu+y444653TXDR32fW6rhwTKTabpB9ZY6q+FbEw1uINf1UqQgE4X61IYZP5tOtLvj9S1jMjjs/uvrJFhCYCbpMfV1SonLXTjUbbQKwETHSxm2lsJizMwJD0M32hSJdthhBxoCDQXpQKHAv7kKRCFlVTKs3JAJeNqTLxpKnzBrtduHOhF7zhuzMO4+o4O5GfZbJhbb565AD2+jkBaGi6oS6gKAKh3HZG2XtqxlWOlNyCoDCPVy73Kpc5NgDcanD9ZDLdGiiAGS1tXtyBQzBFm963n+IgHnhgwEyotoC+qUa1lZKtSDlNmJUF5yUGjy4Ef1RXESmnpUyGeSax3zUj6lCZ8U14QXv97VrKyvog3yAlQvcBOBB2azLOo9BwxaTIcUBBXkyWcDQpmIqERDXHh+9X41wA6mqGZZkjyxErbffnstZg9ZjBhNyKNC5NLhUEm6sqhUJZevUmTQlhc1I2D1pXxSmxrUM/2iwrRVffGezKUJNaObClESkQu5IOgvrHEEcbxoCDwS6VRFYEcGUAYF9KhtUIFAyCTUTqq2rZpDFfTyaVWN3qGBsprnD/cSbsmgXg8GKItkyvpFPi+huxf1J4/avKA+OJDbi7+gNDYDVKIKMTgvKvFJit+UApVEbWlCfi85dNILxzZCGCP5giIi7E1eAWf8pEObeSMi7+ExxxyDdlCAvNqApKBpC3hg57hQj5RsGkOc3O1DVcBCBoJlJFJVqORF6yrBCVigEk4gvRd0k+jF38iKFiMZWk8f84LgoS0iq0dmBb2oJ5GY/iIC3KVowosUBZM5xZVScyEgXBTxF6EQGSNwB8Ahl9XOaAiQhzj8VGDAU7bFZj9kLNSfKCUPbBfmrGYopTbHcaEhpla5YDcxZGxms4yGqFazRRRgnscnL8mQl3/bU5s2FdEpAlS+tmh6wxaJlEfoQ5CC5v8AX8F7jsTf+50AAAAASUVORK5CYII=;" vertex="1" parent="1">
          <mxGeometry x="-50" y="326" width="176" height="174" as="geometry" />
        </mxCell>
        <mxCell id="xH2_IwNUAGD1Fj3YjGmF-16" value="$$\#Q_{LS} &amp;lt; \#Q_{DB}$$" style="text;html=1;align=center;verticalAlign=middle;resizable=0;points=[];autosize=1;strokeColor=none;fillColor=none;" vertex="1" parent="1">
          <mxGeometry x="-15" y="230" width="160" height="30" as="geometry" />
        </mxCell>
        <mxCell id="xH2_IwNUAGD1Fj3YjGmF-17" value="$$t_{LS} \le t_{DB}$$" style="text;html=1;align=center;verticalAlign=middle;resizable=0;points=[];autosize=1;strokeColor=none;fillColor=none;" vertex="1" parent="1">
          <mxGeometry x="-5" y="255" width="140" height="30" as="geometry" />
        </mxCell>
        <mxCell id="xH2_IwNUAGD1Fj3YjGmF-18" value="$$\#Q_{CC} \approx \frac{1}{2} \#Q_{SC}$$" style="text;html=1;align=center;verticalAlign=middle;resizable=0;points=[];autosize=1;strokeColor=none;fillColor=none;" vertex="1" parent="1">
          <mxGeometry x="295" y="390" width="250" height="30" as="geometry" />
        </mxCell>
        <mxCell id="xH2_IwNUAGD1Fj3YjGmF-19" value="$$t_{CC} \le t_{SC}$$" style="text;html=1;align=center;verticalAlign=middle;resizable=0;points=[];autosize=1;strokeColor=none;fillColor=none;" vertex="1" parent="1">
          <mxGeometry x="350" y="420" width="140" height="30" as="geometry" />
        </mxCell>
        <mxCell id="xH2_IwNUAGD1Fj3YjGmF-20" value="&lt;b&gt;Anderson’s classification theorem&lt;/b&gt;&lt;div&gt;planar topological stabilizer codes&lt;/div&gt;&lt;div&gt;with non local logical operators&lt;br&gt;&lt;/div&gt;" style="text;html=1;align=center;verticalAlign=middle;resizable=0;points=[];autosize=1;strokeColor=none;fillColor=none;" vertex="1" parent="1">
          <mxGeometry x="300" y="90" width="220" height="60" as="geometry" />
        </mxCell>
        <mxCell id="xH2_IwNUAGD1Fj3YjGmF-21" value="&lt;div style=&quot;font-size: 8px;&quot;&gt;&lt;font style=&quot;font-size: 8px;&quot;&gt;transversal&lt;/font&gt;&lt;/div&gt;&lt;div style=&quot;font-size: 8px;&quot;&gt;&lt;font style=&quot;font-size: 8px;&quot;&gt;methods&lt;/font&gt;&lt;br&gt;&lt;/div&gt;" style="shape=hexagon;perimeter=hexagonPerimeter2;whiteSpace=wrap;html=1;fixedSize=1;" vertex="1" parent="1">
          <mxGeometry x="200" y="250" width="60" height="40" as="geometry" />
        </mxCell>
        <mxCell id="xH2_IwNUAGD1Fj3YjGmF-23" value="&lt;div&gt;accuracy threshold&lt;/div&gt;&lt;div&gt;$$CC&amp;lt;SC$$&lt;br&gt;&lt;/div&gt;" style="text;html=1;align=center;verticalAlign=middle;resizable=0;points=[];autosize=1;strokeColor=none;fillColor=none;" vertex="1" parent="1">
          <mxGeometry x="360" y="460" width="120" height="40" as="geometry" />
        </mxCell>
      </root>
    </mxGraphModel>
  </diagram>
</mxfile>
